# xmcd CD database file
#
# Track frame offsets:
#	150
#	17055
#	34835
#	47941
#	61598
#	72914
#	85064
#	96298
#	112247
#	124135
#	143064
#	166026
#	178821
#	194842
#	206009
#	216263
#	227326
#	242685
#
# Disc length: 3392 seconds
#
# Revision: 0
# Processed by: cddbd v1.5.2PL0 Copyright (c) Steve Scherf et al.
# Submitted via: CDex 1.70beta2
#
DISCID=040d3e12
DTITLE=Art Tatum - Flying Home CD 1
DYEAR=2004
DGENRE=Jazz
TTITLE0=I Cover The Waterfront
TTITLE1=If You Hadn't Gone Away
TTITLE2=I Gotta Right To Sing The Blues
TTITLE3=I've Got My Love To Keep Me Warm
TTITLE4=Ja Da
TTITLE5=I Know That You Know
TTITLE6=9:20 Special
TTITLE7=I Hadn't Anyone Till You
TTITLE8=Ain't Misbehavin'
TTITLE9=I Don't Stand A Ghost Of A Chance With You
TTITLE10=Come Rain Or Come Shine
TTITLE11=Danny Boy
TTITLE12=Isn't This A Lovely Day
TTITLE13=Corinne, Corinna
TTITLE14=I Got Rythm
TTITLE15=After You've Gone
TTITLE16=Indiana
TTITLE17=Cocktails For Two
EXTD=YEAR: 2004
EXTT0=
EXTT1=
EXTT2=
EXTT3=
EXTT4=
EXTT5=
EXTT6=
EXTT7=
EXTT8=
EXTT9=
EXTT10=
EXTT11=
EXTT12=
EXTT13=
EXTT14=
EXTT15=
EXTT16=
EXTT17=
PLAYORDER=
